<?xml version="1.0" encoding="UTF-8" standalone="no"?>
<!DOCTYPE svg PUBLIC "-//W3C//DTD SVG 1.1//EN" "http://www.w3.org/Graphics/SVG/1.1/DTD/svg11.dtd">
<svg width="100%" height="100%" viewBox="0 0 64 64" version="1.1" xmlns="http://www.w3.org/2000/svg" xmlns:xlink="http://www.w3.org/1999/xlink" xml:space="preserve" xmlns:serif="http://www.serif.com/" style="fill-rule:evenodd;clip-rule:evenodd;stroke-linejoin:round;stroke-miterlimit:2;">
    <path d="M47.716,66.812L47.715,66.812C47.573,66.812 47.345,66.887 47.371,66.949C47.411,67.005 47.465,67.026 47.522,67.026L47.523,67.026C47.571,67.026 47.62,67.011 47.665,66.989C47.762,66.941 47.835,66.861 47.812,66.837C47.795,66.82 47.759,66.812 47.716,66.812ZM27.662,61.858L27.661,61.857C27.55,62.004 27.557,62.268 27.33,62.3C27.462,62.575 27.249,63.013 27.33,63.407C27.373,63.62 27.685,63.708 27.55,63.959C27.633,64.3 27.248,64.172 27.33,64.513C27.464,64.525 27.59,64.546 27.55,64.734C27.587,65.177 27.354,65.349 27.44,65.841C27.532,65.94 27.704,65.957 27.893,65.957L27.897,65.957C27.997,65.957 28.101,65.952 28.201,65.952L28.212,65.952L28.212,65.952C28.364,65.818 28.177,65.662 28.212,65.399C28.23,65.257 28.337,65.246 28.32,65.066C28.31,64.936 28.184,64.525 28.1,64.513L28.1,64.513C28.089,64.63 28.073,64.741 27.946,64.742L27.945,64.742C27.926,64.742 27.904,64.74 27.879,64.734C27.991,64.587 28.062,64.401 28.212,64.292C27.914,63.424 28.5,62.255 27.662,61.858ZM0.633,62.184L0.63,62.184C0.241,62.183 -0.086,62.244 0.02,62.742L0.024,62.742C0.095,62.738 0.165,62.735 0.232,62.735L0.235,62.735C0.422,62.736 0.586,62.76 0.682,62.852L0.682,62.852C0.701,62.78 0.754,62.738 0.847,62.738L0.848,62.738C0.864,62.739 0.882,62.74 0.901,62.742L0.901,62.742C0.757,62.465 1.335,62.396 1.012,62.3L1.011,62.3C1.009,62.344 0.987,62.368 0.963,62.368L0.963,62.368C0.925,62.368 0.882,62.31 0.901,62.189C0.811,62.187 0.721,62.184 0.633,62.184ZM49.685,2.861C49.685,2.861 49.685,2.861 49.685,2.861L49.685,2.861C49.704,2.825 49.788,3.067 49.685,3.193C49.384,3.112 49.463,3.413 49.244,3.415C49.353,3.856 48.914,3.748 49.023,4.189C48.584,4.258 48.546,4.822 48.362,4.964C48.285,5.024 48.105,5.005 48.032,5.075C47.973,5.133 47.971,5.344 47.923,5.407C47.852,5.495 47.679,5.554 47.592,5.629C47.296,5.88 47.136,6.041 46.711,5.96C46.613,6.194 46.376,6.287 46.38,6.624C45.937,6.548 46.111,7.091 45.72,7.067C45.722,7.327 45.53,7.393 45.609,7.731C45.199,7.614 45.435,8.146 45.059,8.064C45.077,8.414 44.767,8.434 44.838,8.839C44.345,8.747 44.348,9.155 44.068,9.281C43.731,9.201 43.666,9.394 43.408,9.391C43.498,9.704 43.252,9.678 43.297,9.945C43.163,9.957 43.037,9.978 43.076,10.167C42.775,10.188 42.663,10.486 42.416,10.497C42.29,10.505 42.367,10.569 42.306,10.609C42.082,10.755 41.811,10.796 41.756,11.052C42.049,11.246 42.27,11.06 42.416,11.052C42.734,11.035 43.073,10.342 43.297,10.942C43.195,10.996 42.946,10.869 42.857,10.941C42.857,10.942 42.857,10.942 42.856,10.942L42.857,10.941C42.882,10.922 42.638,11.473 42.636,11.495C42.631,11.622 42.568,11.544 42.526,11.605C42.388,11.816 42.356,11.844 42.306,12.048C42.251,12.271 42.057,12.362 42.085,12.602C41.875,12.65 41.809,12.839 41.535,12.823C41.51,13.181 41.244,13.056 41.094,13.265C41.116,13.236 41.252,13.378 41.094,13.376C40.639,13.453 40.223,13.156 39.773,13.155C39.517,13.153 39.248,13.283 39.003,13.265C38.581,13.235 38.242,12.896 38.011,13.155C38.073,13.155 38.137,13.244 38.011,13.265C37.201,13.305 36.656,13.079 36.139,12.823C36.25,12.085 35.507,12.205 35.258,11.827L35.258,11.384C35.115,11.406 34.96,11.355 34.818,11.384C34.616,11.424 34.588,11.477 34.488,11.605C34.31,11.415 34.028,11.331 33.607,11.384C33.607,11.495 33.517,11.516 33.497,11.605C33.485,11.73 33.657,11.777 33.497,11.827C33.479,11.707 33.397,11.741 33.276,11.715C32.88,11.637 32.561,11.546 32.175,11.495C31.938,11.462 31.658,11.619 31.515,11.384C31.688,11.374 31.896,11.399 31.845,11.163C31.782,10.894 31.429,10.916 31.184,10.831C30.914,10.978 31.382,11.164 31.074,11.272C30.936,11.262 30.922,11.135 30.854,11.052C30.825,11.016 30.673,11.08 30.633,11.052C30.552,10.995 30.556,10.838 30.413,10.831C30.271,10.823 29.963,10.669 29.753,10.609C29.602,10.566 29.175,10.383 29.091,10.387C29.006,10.392 28.991,10.497 28.982,10.497C28.605,10.559 28.812,10.326 28.541,10.497C28.312,10.645 28.001,10.636 27.771,10.72C27.705,11.134 27.385,11.292 27.22,11.605C27.042,11.672 27.245,11.732 27.109,11.827C27.038,11.876 26.862,11.794 26.779,11.827C26.751,11.838 26.702,12.023 26.67,12.048C26.613,12.09 26.382,12.144 26.339,12.158C26.222,12.199 26.086,12.254 26.008,12.269C25.87,12.297 25.51,12.153 25.459,12.38C25.627,12.407 25.474,12.563 25.347,12.602C25.039,12.734 24.587,12.723 24.136,12.712C24.093,12.424 23.808,12.379 23.807,12.048C23.458,12.067 23.439,11.754 23.035,11.827C22.833,11.581 22.647,11.214 22.265,11.163C21.876,11.11 21.602,11.342 21.274,11.495C21.398,11.845 21.078,11.866 21.053,11.938C21.01,12.061 20.987,12.323 20.943,12.49C20.852,12.834 20.8,12.981 20.723,13.044C20.633,13.117 20.71,13.417 20.503,13.376C20.184,13.5 19.82,13.575 19.401,13.598C19.473,13.955 19.162,13.864 19.071,13.93C19.014,13.969 19.094,14.184 18.961,14.15C18.798,14.209 18.684,14.315 18.52,14.372C18.396,14.72 18.552,14.665 18.411,14.926C18.075,14.728 17.931,15.107 17.64,15.147C17.535,15.161 17.502,15.051 17.419,15.036C17.423,15.037 17.406,15.167 17.309,15.147C17.29,15.143 17.302,14.967 17.2,15.036C17.047,15.104 17.182,15.462 16.979,15.479C16.685,15.745 16.426,15.914 15.988,15.811C15.574,15.714 15.145,15.384 14.887,15.036C14.648,14.716 14.498,14.288 14.446,13.93C14.037,13.749 13.724,13.475 13.675,12.934C13.4,12.951 13.33,12.763 13.235,12.602C13.19,12.314 12.906,12.267 12.904,11.938C12.602,11.885 12.55,11.637 12.464,11.495C12.325,11.268 12.22,11.128 12.134,10.942C12.107,10.883 12.051,10.943 12.023,10.831C11.925,10.435 11.912,10.678 11.694,10.497C11.656,10.468 11.729,10.309 11.694,10.277C11.633,10.223 11.455,10.297 11.473,10.167C11.12,10.181 10.63,10.057 10.702,10.497C10.678,10.644 10.855,10.553 10.922,10.609C10.96,10.64 10.889,10.793 10.922,10.831C11.181,11.119 11.57,11.306 11.803,11.605C11.839,11.65 11.777,11.773 11.803,11.827C11.813,11.848 11.993,12.016 12.023,12.048C12.089,12.119 12.194,12.19 12.244,12.269C12.305,12.368 12.308,12.518 12.353,12.602C12.543,12.954 12.92,13.193 12.904,13.598C13.034,13.615 13.217,13.579 13.235,13.708C13.298,14.013 13.509,14.17 13.565,14.483C13.79,14.426 13.799,14.635 13.895,14.705C14.006,14.785 14.159,14.802 14.226,14.926C13.86,15.024 13.513,15.012 13.125,14.926C13.11,14.923 12.96,14.732 12.904,14.705C12.606,14.555 12.239,14.601 11.913,14.593C11.977,14.89 11.588,15.285 11.913,15.479C11.952,15.35 11.953,15.439 12.023,15.479C12.248,15.609 12.404,15.712 12.574,15.811C12.702,15.886 12.706,15.923 12.794,16.032C12.785,16.022 12.368,16.303 12.794,16.365C12.861,16.374 12.792,16.21 12.904,16.365C12.988,16.48 13.024,16.602 13.015,16.807C13.154,16.962 13.554,16.856 13.565,17.139C13.424,17.147 13.416,17.284 13.344,17.361C13.272,17.439 13.206,17.515 13.125,17.582C13.445,17.678 13.249,17.748 13.235,18.025C12.897,17.943 13.023,18.329 12.684,18.247L12.684,18.357C12.379,18.715 11.911,18.909 11.583,19.243C11.53,19.046 11.466,19.291 11.362,19.354C10.758,19.01 10.319,19.675 9.6,19.575C9.601,19.513 9.512,19.449 9.491,19.575C9.659,19.601 9.507,19.756 9.381,19.795C9.035,19.818 8.93,20.081 8.72,20.239C8.272,20.231 8.199,20.6 7.619,20.46C7.565,20.592 7.502,20.711 7.399,20.792C7.138,20.65 7.193,20.807 6.847,20.681C6.548,20.934 6.061,20.997 5.526,21.013C5.637,21.567 5.033,21.403 4.976,21.789C5.226,21.867 5.089,22.122 5.196,22.232C5.277,22.314 5.526,22.294 5.636,22.341C5.65,22.347 5.627,22.441 5.636,22.453C5.77,22.616 6.284,22.228 6.407,22.232C6.548,22.235 6.56,22.375 6.738,22.341C6.761,22.218 6.86,22.17 6.959,22.12C7.148,22.164 7.24,21.956 7.288,22.12C7.085,22.136 7.221,22.495 7.067,22.563C6.715,22.466 6.84,22.85 6.628,22.895L6.188,22.895C6.182,23.047 6.239,23.139 6.297,23.227C6.427,23.237 6.37,23.339 6.407,23.449C6.42,23.487 6.522,23.581 6.518,23.559C6.524,23.594 6.447,23.74 6.407,23.67C6.519,23.867 6.664,23.841 6.847,24.002C6.827,23.761 6.938,23.651 7.178,23.67C6.87,24.139 7.448,23.599 7.508,23.892C7.186,23.863 7.17,24.141 6.847,24.112C6.961,24.558 6.676,24.604 6.518,24.777C6.917,24.826 6.58,25.169 6.628,25.33C6.675,25.493 6.879,25.425 6.847,25.662C6.538,25.571 6.563,25.818 6.297,25.774C6.432,26.251 6.274,26.181 6.407,26.659C6.836,26.459 7.025,27.058 6.847,27.101C6.554,27.163 6.287,26.646 6.077,26.99C6.324,27.071 5.834,27.324 5.856,27.544C5.656,27.437 5.625,27.715 5.416,27.766C4.967,27.875 4.336,27.728 3.985,27.655C3.897,28.01 3.585,28.138 3.435,28.43C3.594,28.49 4.002,28.3 3.985,28.54C3.657,28.821 3.212,28.562 2.773,28.54C2.148,28.509 1.455,28.497 1.122,28.43C0.719,28.348 0.319,28.329 0.131,28.54C0.337,28.566 0.068,28.722 0.24,28.761C0.393,28.962 0.655,28.94 0.901,28.982C1.044,29.008 1.053,29.091 1.232,29.094C1.481,29.097 1.754,28.973 2.003,28.982C2.209,28.992 2.248,29.074 2.444,29.094C2.736,29.124 3.101,29.088 3.435,29.094C3.677,29.097 4.126,28.996 4.315,29.204C3.642,29.397 3.041,29.05 2.773,29.537C3.376,29.6 3.273,30.014 3.214,30.532C3.083,30.697 2.799,30.705 2.663,30.865C2.88,30.831 2.882,31.014 2.994,31.085C3.006,31.295 3.357,31.163 3.323,31.419C3.002,31.387 2.945,31.444 3.103,31.639C3.163,31.868 3.214,31.55 3.323,31.528C3.39,31.516 3.766,31.5 3.985,31.528C3.991,31.529 3.978,31.632 3.985,31.639C4.042,31.71 4.44,31.611 4.535,31.639C4.575,31.65 4.702,31.837 4.756,31.861C4.871,31.91 5.078,31.816 5.086,31.971C3.588,32.075 2.485,31.899 1.232,32.192C1.263,32.411 1.083,32.412 1.011,32.524C1.185,32.535 1.393,32.51 1.341,32.746C2.668,32.713 3.725,32.411 5.086,32.414C5.112,32.572 5.267,32.601 5.306,32.746C5.023,32.867 5.21,33.461 4.976,33.632C4.823,33.49 4.908,33.109 4.756,32.968C4.408,33.022 4.367,32.768 3.985,32.857C3.612,33.168 3.974,33.529 3.655,33.853C3.789,33.866 3.915,33.887 3.875,34.075C4.004,34.092 4.187,34.056 4.205,34.186C4.083,34.247 4.185,34.614 3.985,34.849C4.115,34.903 4.234,34.967 4.315,35.071C4.505,35.114 4.597,34.906 4.645,35.071C4.409,35.222 4.427,35.463 4.205,35.735C4.025,35.954 3.674,36.067 3.655,36.288C3.655,36.288 3.655,36.288 3.655,36.288L3.655,36.288C3.657,36.272 3.87,36.394 3.875,36.399C4.106,36.648 3.762,36.793 3.985,36.842C3.985,36.78 4.073,36.716 4.094,36.842C3.707,37.031 4.371,37.064 4.315,37.284C4.042,37.639 4.561,37.939 4.425,38.502C5.007,38.423 5.06,39.19 4.756,39.388C5.087,39.38 5.555,39.799 5.636,39.388C5.518,39.392 5.356,39.335 5.526,39.276C5.788,39.36 5.807,39.411 5.856,39.609C5.92,39.861 6.288,40.02 6.188,40.384C6.528,40.372 6.798,40.434 6.959,40.606C6.5,40.587 6.039,40.567 5.856,40.826C5.874,41.331 5.947,41.26 5.856,41.712C6.083,41.743 6.077,42.008 6.188,42.154C6.347,42.215 6.756,42.025 6.738,42.266C6.655,42.429 6.552,42.366 6.518,42.597C6.507,42.666 6.557,42.874 6.518,42.929C6.498,42.956 6.177,42.743 6.407,42.929C6.474,42.984 6.299,43.072 6.297,43.041L6.297,43.04C6.297,43.041 6.297,43.041 6.297,43.041C6.302,43.133 6.404,43.134 6.407,43.151C6.427,43.248 6.297,43.255 6.297,43.261C6.29,43.374 6.407,43.392 6.407,43.482C6.407,43.501 6.19,43.658 6.297,43.815C6.641,43.686 6.671,44.017 6.738,44.035C7.134,44.153 7.598,44.03 8.059,44.147C7.963,43.792 8.229,43.8 8.39,43.704C8.49,43.899 8.776,43.907 8.941,44.035C8.913,43.832 9.127,44.06 9.16,44.035C9.217,43.996 9.137,43.781 9.271,43.815C9.254,44.09 9.443,44.158 9.491,44.369C9.899,44.447 9.963,44.18 10.372,44.258C10.444,44.59 10.795,44.645 10.702,45.144C10.825,45.167 10.873,45.266 10.922,45.364C11.052,45.418 11.172,45.483 11.252,45.585C11.13,45.687 11.217,45.792 11.143,46.139C11.11,46.394 11.46,46.262 11.473,46.471C11.162,46.454 11.217,46.803 10.922,46.803C11.01,47.397 10.28,47.288 10.591,47.8C10.367,47.993 10.376,47.717 10.151,47.911C10.274,48.403 9.86,48.356 9.821,48.685C10.43,49.142 10.946,49.694 11.913,49.793C12.047,50.238 12.936,50.171 13.344,50.013C13.85,49.556 13.924,48.639 14.666,48.464C15.205,48.337 15.501,48.731 16.208,48.685C16.289,49.008 16.803,48.9 16.759,49.349C17.42,49.46 17.87,49.782 18.3,50.123C18.209,50.437 18.456,50.411 18.411,50.678C18.276,50.69 18.15,50.71 18.19,50.899C17.939,50.868 17.777,50.925 17.75,51.12C18.096,51.173 18.18,50.962 18.411,50.899C18.33,51.237 18.522,51.302 18.52,51.563C18.961,51.448 19.013,51.776 19.181,51.784C19.297,51.79 19.244,51.876 19.291,51.895C19.587,52.014 20.006,51.892 20.172,52.227C20.253,52.459 20.253,52.659 20.172,52.891C20.528,52.792 20.327,53.252 20.503,53.334C20.497,53.476 20.361,53.487 20.392,53.665C20.454,53.665 20.517,53.756 20.392,53.777C20.359,53.994 20.541,53.996 20.612,54.108C20.514,54.304 20.367,54.451 20.172,54.551C20.347,54.864 20.046,55.021 20.283,55.327L19.953,55.327C19.865,55.5 20.08,55.695 20.062,55.769C20.057,55.789 19.85,55.749 19.841,55.769C19.82,55.826 19.845,55.929 19.841,55.991C19.833,56.141 19.737,56.231 19.732,56.322C19.728,56.392 19.621,56.447 19.621,56.433C19.617,56.511 19.752,56.608 19.732,56.655C19.696,56.736 19.519,56.735 19.512,56.876C19.507,56.958 19.402,56.983 19.401,56.986C19.331,57.511 19.393,57.962 19.621,58.535C19.688,58.727 20.144,58.528 20.172,58.758C19.879,58.759 19.544,58.717 19.401,58.868C19.463,59.135 19.32,59.541 19.401,59.753C19.451,59.882 19.558,59.87 19.621,59.976C19.3,59.937 19.215,60.279 19.181,60.417C19.13,60.621 18.98,60.699 18.961,60.861C18.96,60.863 19.068,60.857 19.071,60.861C19.113,60.905 18.96,61.046 18.961,61.082C18.962,61.11 19.157,61.171 19.071,61.304C19.336,61.258 19.311,61.506 19.621,61.414C19.646,61.328 19.714,61.285 19.841,61.304C19.96,61.068 19.811,60.813 19.841,60.529C19.854,60.416 19.932,60.4 19.953,60.307C20.047,59.868 20.082,59.428 20.172,59.201C20.183,59.172 20.171,59.118 20.172,59.09C20.177,59 20.281,58.991 20.283,58.979C20.324,58.747 20.236,58.565 20.283,58.315C20.345,57.974 20.457,57.482 20.503,57.098C20.516,56.982 20.298,56.652 20.612,56.655C20.531,56.244 20.429,55.81 20.723,55.658C20.711,55.783 20.883,55.831 20.723,55.879C20.724,56.025 20.916,55.98 20.943,56.101L21.603,56.101C21.494,55.546 21.877,55.227 21.934,54.884C21.953,54.773 21.824,54.751 21.824,54.662C21.824,54.694 21.923,54.595 21.934,54.551C22.015,54.223 21.824,54.142 21.824,53.998C21.824,54.029 21.923,53.931 21.934,53.887C22.007,53.592 21.878,53.356 21.934,53.112C22.288,53.21 22.163,52.825 22.374,52.78C22.455,52.442 22.262,52.377 22.265,52.116L22.706,52.116C22.741,51.858 22.818,51.64 23.035,51.563C23.644,51.413 24.455,51.081 25.127,51.341C25.03,51.697 25.491,51.493 25.459,51.784C25.524,52.137 25.251,52.126 25.459,52.338L24.907,52.338C24.942,52.594 24.889,52.763 24.797,52.891C25.12,52.821 25.123,53.147 25.127,53.223C25.135,53.351 25.199,53.273 25.239,53.334C25.381,53.557 25.341,53.622 25.239,53.777C25.572,54.087 25.833,54.481 25.678,54.995C25.969,55.366 25.996,56.002 26.008,56.655C26.276,56.649 26.108,57.041 26.229,57.208C26.292,57.295 26.394,57.191 26.449,57.319C26.513,57.468 26.46,57.796 26.559,57.983C26.62,58.097 26.705,58.108 26.779,58.205C26.355,58.707 26.911,59.444 27.109,59.976L27.771,59.976C27.923,59.907 27.787,59.548 27.991,59.532C28.071,59.23 27.772,59.309 27.771,59.09C27.994,58.934 27.662,58.708 27.879,58.425C27.727,58.246 27.569,58.075 27.44,57.872C27.456,57.437 27.251,56.971 27.22,56.543C27.21,56.42 27.309,56.483 27.33,56.433C27.574,55.86 27.135,55.223 27.109,54.995C27.088,54.801 27.146,54.573 27.109,54.33C27.048,53.92 27.076,54.009 27.109,53.665C27.121,53.554 26.995,53.533 27,53.445C27.004,53.387 27.141,53.389 27.109,53.223C27.074,53.038 26.801,52.994 26.89,52.78C27.396,52.811 27.005,51.937 27.661,52.116C27.573,51.702 27.908,51.672 27.991,51.563C28.04,51.495 27.973,51.329 28.1,51.341L28.431,51.341C28.726,50.864 29.271,50.637 30.083,50.678C30.282,50.471 30.639,50.425 30.964,50.345C30.981,50.549 31.337,50.413 31.404,50.567C31.398,50.708 31.264,50.721 31.294,50.899C31.505,50.945 31.768,50.939 31.735,51.231C32.144,51.146 32.188,51.334 32.286,51.453C32.314,51.487 32.478,51.416 32.506,51.453C32.595,51.571 32.456,51.852 32.615,51.895C33.285,51.849 33.124,52.638 33.937,52.449C34.219,51.864 34.728,51.234 34.488,50.456C34.619,50.22 34.622,49.853 34.928,49.793C34.945,49.517 34.754,49.449 34.708,49.238C35.642,48.85 36.464,48.346 37.902,48.464C37.945,48.273 37.737,48.18 37.902,48.131C38.2,47.989 38.513,47.86 39.003,47.911C39.275,47.593 39.865,47.596 40.214,47.356C40.315,47.571 40.613,47.479 40.764,47.578C40.91,47.673 41.003,47.915 41.094,48.021L41.426,48.021C41.732,48.375 41.967,48.805 42.526,48.907C42.528,49.237 42.813,49.282 42.856,49.57C43.51,49.651 43.675,50.223 43.958,50.678C44.321,50.683 44.507,50.864 44.949,50.788C45.177,50.377 44.791,50.499 44.838,50.013C44.587,49.998 44.502,49.736 44.397,49.681C44.267,49.612 44.03,49.648 43.848,49.57C43.834,49.565 43.858,49.472 43.848,49.46C43.822,49.427 43.668,49.479 43.627,49.46C43.614,49.453 43.638,49.363 43.627,49.349C43.598,49.313 43.447,49.377 43.408,49.349C43.257,49.246 43.147,48.978 42.967,48.796C42.786,48.611 42.58,48.38 42.416,48.242C42.193,48.056 41.987,48.125 41.975,47.911C41.969,47.784 41.931,47.857 41.865,47.8C41.654,47.615 41.485,47.516 41.426,47.246C41.211,47.156 40.681,46.849 40.874,46.692C40.955,46.628 40.764,46.582 40.764,46.582C40.631,46.419 41.078,46.336 41.094,46.471C41.101,46.024 41.391,46.043 41.644,45.807C41.644,45.807 41.644,45.807 41.644,45.807L41.644,45.807C41.586,45.861 41.516,45.618 41.756,45.696C41.953,45.682 42.013,45.806 41.975,46.03C42.134,46.011 42.211,46.098 42.306,46.139C42.376,46.169 42.575,46.193 42.636,46.249C42.695,46.303 42.689,46.542 42.747,46.582C42.919,46.701 43.225,46.681 43.408,46.803C43.494,46.861 43.444,47.065 43.518,47.136C43.612,47.228 43.846,47.171 43.958,47.246C44.059,47.773 44.615,47.84 44.729,48.353C45.313,48.372 45.29,48.425 45.829,48.353C45.855,48.267 45.833,48.134 45.941,48.131C45.905,47.907 45.835,47.723 45.72,47.578C45.604,47.432 45.242,47.416 45.279,47.136C44.713,47.083 44.401,46.945 44.288,46.471C44.225,46.206 44.376,45.987 44.509,45.696C44.619,45.452 44.65,45.041 44.949,45.144C45.233,45.264 45.479,45.422 45.609,45.696C46.208,45.722 46.468,46.089 46.821,46.36C47.893,46.317 48.035,47.208 49.023,47.246C49.199,46.52 48.4,46.652 48.253,46.471C48.226,46.439 48.072,46.49 48.032,46.471C48.018,46.464 48.043,46.374 48.032,46.36C48.002,46.324 47.851,46.39 47.812,46.36C47.681,46.264 47.72,46.082 47.592,45.918C47.203,45.903 47.1,45.601 46.711,45.585C46.575,45.353 46.407,45.155 46.27,44.921C45.828,44.851 45.516,44.647 45.609,44.035C45.322,44.067 45.136,43.996 45.17,43.704C45.215,43.491 45.597,43.616 45.5,43.261C45.401,42.896 45.112,42.728 44.949,42.597C44.926,42.579 44.861,42.616 44.838,42.597C44.806,42.57 44.874,42.399 44.838,42.376C44.684,42.276 44.505,42.405 44.397,42.266C44.333,42.18 44.595,42.069 44.509,41.933C44.229,41.92 44.082,41.772 44.068,41.491C44.258,41.424 44.059,40.966 44.288,40.936C44.399,40.861 44.385,41.155 44.397,41.158C44.485,41.18 44.749,41.066 44.949,41.047C45.168,41.028 45.39,41.063 45.609,41.047C45.651,40.918 45.557,40.729 45.609,40.606C45.625,40.57 45.817,40.719 45.829,40.715C46.046,40.659 45.738,40.501 45.941,40.384C46.131,40.272 46.403,40.29 46.6,40.162C46.737,40.298 46.831,40.34 46.931,40.495C47.023,40.636 46.977,40.843 47.151,40.936C47.151,40.876 47.24,40.811 47.262,40.936C47.292,41.132 47.32,41.297 47.371,41.491C47.437,41.732 47.55,41.927 47.592,42.154C47.626,42.34 47.392,42.323 47.592,42.487C47.614,42.505 47.588,42.675 47.592,42.708C47.616,42.92 47.661,43.017 47.702,43.151C47.733,43.252 47.677,43.38 47.702,43.482C47.955,43.516 47.835,43.697 48.032,43.815C48.183,43.906 48.405,43.829 48.582,43.926C48.599,43.934 48.572,44.022 48.582,44.035C48.61,44.068 48.764,44.017 48.803,44.035C48.817,44.043 48.792,44.133 48.803,44.147C48.832,44.182 48.982,44.122 49.023,44.147C49.068,44.174 49.086,44.333 49.133,44.369C49.241,44.449 49.385,44.371 49.464,44.478C49.516,44.551 49.421,44.731 49.464,44.811C50.108,44.829 50.353,45.246 50.895,45.364C50.645,45.563 51.08,45.777 51.115,45.807C51.25,45.917 51.035,46.366 51.336,46.249C51.378,46.081 51.468,46.234 51.336,46.36C51.552,46.393 51.554,46.211 51.667,46.139L52.546,46.139C52.705,45.892 53.144,45.929 53.318,45.696C53.69,45.666 53.951,45.52 54.42,45.585C54.527,45.436 54.712,45.364 54.859,45.254C55.094,45.429 55.384,45.174 55.409,45.144C55.419,45.133 55.744,45.032 55.741,45.033C56.048,44.955 56.087,44.86 56.291,44.7C56.306,44.689 56.383,44.701 56.4,44.7C56.53,44.693 56.451,44.648 56.512,44.59C56.603,44.499 56.596,44.427 56.732,44.369C56.861,44.312 56.99,44.461 57.062,44.478C56.875,43.962 57.394,44.138 57.503,44.035C57.651,43.899 57.691,43.495 57.943,43.704C58.065,43.274 58.472,43.129 58.824,42.929C59.101,43.166 59.483,43.151 59.815,43.261C60.148,43.372 60.413,43.619 60.806,43.593C60.519,43.922 60.909,43.703 61.026,43.815C61.036,43.823 61.018,43.924 61.026,43.926C61.421,44.009 61.799,43.899 61.797,43.593C60.786,43.355 60.037,42.853 58.935,42.708C58.574,42.424 58.601,42.096 58.714,41.712C58.772,41.514 58.772,41.314 58.824,41.158C58.834,41.128 59.025,41.087 59.044,41.047C59.211,40.713 58.999,40.406 59.374,40.384C59.379,40.231 59.322,40.141 59.265,40.052C59.505,40.073 59.614,39.961 59.595,39.72C59.786,39.728 59.937,39.695 60.035,39.609C60.097,39.056 60.034,39.067 60.145,38.613C59.781,38.279 58.849,38.513 58.714,37.948C58.793,37.611 58.601,37.545 58.603,37.284C58.65,37.073 58.919,37.084 58.824,36.731C58.686,36.685 58.6,36.588 58.603,36.399C58.331,36.416 58.146,36.342 58.053,36.177C58.399,35.924 57.485,35.438 58.053,35.513C58.053,35.402 57.963,35.382 57.943,35.291C57.499,35.14 57.553,35.491 57.392,35.624C57.394,35.106 57.032,34.955 56.621,34.849C56.378,34.935 56.193,35.082 55.85,35.071C55.666,35.025 55.355,34.55 55.191,34.849C55.309,34.876 55.455,35.032 55.3,35.071C55.078,34.925 54.927,34.707 54.859,34.407C54.42,34.443 54.248,34.209 53.759,34.296C54.028,33.857 53.594,34.42 53.648,33.964C53.564,33.939 53.431,33.96 53.429,33.853C53.299,33.836 53.115,33.872 53.097,33.742C52.798,33.662 52.877,33.962 52.656,33.964C52.422,33.685 52.402,33.188 52.106,32.968C51.814,32.965 51.459,33.029 51.447,32.746C52.004,32.524 53.006,32.773 53.868,32.857C54.508,32.374 55.623,32.515 56.182,32.968C56.194,32.724 56.648,32.921 56.841,32.857C57.003,32.686 57.406,32.759 57.724,32.746C57.822,32.422 57.822,32.406 57.724,32.083C57.005,31.865 56.236,31.825 55.741,31.971C55.563,32.023 55.475,32.065 55.3,32.083C54.694,32.143 54.619,31.978 54.199,31.861C53.891,31.774 53.396,31.659 53.318,31.639C53.176,31.604 53.085,31.553 52.988,31.528C52.847,31.493 52.755,31.442 52.656,31.419C52.517,31.383 52.424,31.332 52.327,31.307C52.262,31.291 52.167,31.334 52.106,31.307C52.067,31.29 52.045,31.109 51.997,31.085C51.938,31.059 51.839,31.102 51.777,31.085C51.574,31.034 51.489,30.989 51.226,30.976C51.133,30.971 51.133,30.869 51.115,30.865C50.898,30.82 50.661,30.82 50.455,30.753C50.062,30.629 49.76,30.383 49.353,30.312C48.905,30.242 48.969,30.221 48.803,30.422C48.62,30.112 48.812,30.054 48.803,29.868C48.794,29.704 48.663,29.47 48.694,29.425C48.758,29.332 48.968,29.312 49.133,29.315C49.029,28.876 49.341,28.96 49.464,28.872C49.52,28.833 49.441,28.617 49.574,28.651C49.986,28.572 50.545,28.378 51.006,28.43C51.518,28.487 51.888,28.514 52.106,28.097C51.744,27.871 50.991,28.038 50.455,27.987C50.205,27.464 49.656,27.241 49.353,26.769C48.798,26.848 48.739,26.429 48.141,26.548C48.029,26.256 47.706,26.175 47.592,25.884C47.852,25.814 47.575,25.202 47.812,25.109C47.326,25.125 47.822,24.837 47.702,24.556C47.512,24.562 47.419,24.47 47.371,24.334C47.731,24.152 47.17,23.734 47.482,23.559C47.204,23.469 47.328,22.975 47.151,22.784C47.448,22.576 47.251,22.289 47.371,22.011C47.39,21.966 47.55,21.857 47.592,21.789C47.634,21.718 47.67,21.803 47.702,21.677C47.758,21.453 47.977,21.133 48.141,21.124C48.269,21.117 48.192,21.054 48.253,21.013C48.405,20.915 48.796,20.945 48.803,20.792C48.814,20.588 49.327,20.611 49.464,20.57C49.712,20.279 50.025,20.012 50.344,19.795C50.477,19.707 50.647,19.763 50.785,19.685C50.801,19.677 50.773,19.589 50.785,19.575C50.816,19.537 50.968,19.607 51.006,19.575C51.043,19.542 50.97,19.389 51.006,19.354C51.043,19.315 51.185,19.389 51.226,19.354C51.319,19.272 51.319,19.198 51.447,19.132C51.506,19.101 51.753,19.021 51.777,19.021C51.889,19.015 51.843,18.928 51.885,18.91C52.063,18.843 52.368,18.886 52.546,18.8C52.571,18.789 52.637,18.603 52.656,18.577C52.687,18.543 52.838,18.604 52.877,18.577C52.975,18.515 53.135,18.297 53.209,18.247C53.259,18.213 53.371,18.271 53.429,18.247C53.463,18.231 53.5,18.053 53.538,18.025C53.638,17.954 53.988,17.998 53.868,17.693C53.203,17.003 53.033,17.992 52.327,17.804C52.332,18.141 52.226,18.367 51.997,18.469C51.642,18.352 51.639,18.65 51.556,18.689C51.466,18.731 51.316,18.646 51.226,18.689C51.183,18.709 51.167,18.885 51.115,18.91C50.998,18.969 50.789,18.848 50.676,18.91C50.62,18.941 50.696,19.173 50.565,19.132C50.122,19.17 49.76,19.13 49.685,18.8C49.753,18.659 49.998,18.783 50.124,18.689C50.154,18.666 50.108,18.505 50.124,18.469C50.129,18.455 50.328,18.367 50.344,18.357C50.638,18.188 50.907,18.062 51.336,18.025C51.318,17.748 51.506,17.678 51.667,17.582C51.817,17.364 52.33,17.512 52.327,17.139C52.312,16.823 51.868,16.937 51.556,16.918C51.06,17.305 50.434,17.562 49.794,17.804C49.683,17.951 49.691,18.215 49.464,18.247C48.91,18.133 49.043,18.709 48.473,18.577C48.419,18.709 48.355,18.829 48.253,18.91C48.068,19.021 47.896,19.021 47.702,19.132C47.475,19.262 47.369,19.452 47.151,19.464C47.034,19.469 47.091,19.553 47.041,19.575C46.496,19.814 45.998,19.614 45.279,19.575C45.206,19.345 44.957,19.291 44.838,19.021C44.772,18.868 44.883,18.63 44.838,18.469C44.787,18.274 44.587,18.116 44.509,17.914C44.441,17.742 44.455,17.642 44.397,17.472C44.008,17.31 43.786,16.98 43.187,17.029C43.231,16.871 43.319,16.843 43.187,16.697C43.023,16.678 42.78,16.736 42.747,16.586C42.998,16.488 42.736,16.177 42.747,15.922C42.756,15.671 42.813,15.607 42.856,15.369C42.639,15.107 42.598,14.669 42.526,14.262C42.691,14.095 42.858,13.93 43.076,13.819C42.947,13.32 43.564,13.572 43.408,13.044C43.777,13.009 43.848,12.673 43.958,12.38C44.281,12.348 44.566,11.902 44.838,11.715C44.903,11.672 45.12,11.662 45.17,11.605C45.258,11.504 45.22,11.286 45.279,11.163C45.285,11.152 45.365,11.09 45.389,11.052C45.439,10.973 45.439,10.894 45.5,10.831C45.231,10.702 45.17,10.6 44.838,10.609C44.655,10.615 44.391,11.016 44.288,10.72C44.341,10.565 44.31,10.404 44.397,10.277C44.489,10.148 44.788,10.113 44.838,10.056C44.874,10.015 44.817,9.883 44.838,9.834C44.876,9.752 45.052,9.755 45.059,9.613C45.068,9.456 45.317,9.487 45.389,9.391C45.368,9.036 45.496,8.977 45.609,8.839C45.668,8.766 45.776,8.699 45.829,8.616C46.233,8.509 46.418,8.199 46.711,7.953C46.754,7.916 46.889,7.988 46.931,7.953C46.963,7.926 46.912,7.773 46.931,7.731C47.012,7.552 47.475,7.597 47.592,7.509C47.799,7.354 47.822,6.965 48.141,6.957C48.084,6.528 48.338,6.416 48.253,5.96C48.921,5.747 48.935,4.876 49.794,4.853C49.868,4.337 50.308,4.189 50.235,3.525C50.531,3.609 50.364,3.324 50.455,3.193C50.576,3.021 50.785,3.066 50.785,2.861C50.574,2.705 50.342,2.568 50.015,2.529C49.948,2.829 49.798,2.631 49.685,2.861ZM3.465,60.628L3.464,60.628C3.443,60.628 3.422,60.628 3.401,60.63C3.384,60.632 3.368,60.633 3.352,60.636C3.34,60.638 3.327,60.641 3.315,60.643C3.305,60.646 3.296,60.648 3.287,60.651C3.279,60.653 3.272,60.655 3.265,60.658C3.259,60.66 3.254,60.662 3.248,60.664C3.217,60.677 3.187,60.695 3.163,60.718C3.16,60.721 3.157,60.724 3.154,60.728C3.149,60.732 3.145,60.737 3.141,60.742C3.136,60.749 3.131,60.757 3.127,60.765C3.121,60.776 3.116,60.788 3.112,60.801C3.108,60.813 3.106,60.826 3.104,60.838C3.103,60.846 3.103,60.854 3.103,60.861L3.104,60.861C3.139,60.851 3.181,60.847 3.227,60.847L3.229,60.847C3.329,60.847 3.448,60.866 3.557,60.874C3.586,60.876 3.614,60.877 3.641,60.877L3.643,60.877C3.762,60.877 3.855,60.85 3.875,60.75C3.804,60.679 3.63,60.628 3.465,60.628ZM6.021,55.945L6.018,55.945C5.894,55.945 5.789,55.978 5.747,55.991C5.724,55.997 5.7,56 5.675,56L5.674,56C5.589,56 5.495,55.972 5.416,55.991C5.308,56.324 5.026,56.484 5.086,56.986C5.224,57.031 5.311,57.129 5.306,57.319C5.421,57.338 5.525,57.347 5.621,57.347L5.623,57.347C6.296,57.346 6.526,56.898 6.738,56.433C6.54,56.421 6.649,56.099 6.44,56.098L6.44,56.098C6.43,56.098 6.419,56.099 6.408,56.1L6.407,56.101C6.29,55.979 6.146,55.945 6.021,55.945ZM9.916,46.134L9.915,46.134C9.862,46.134 9.731,46.242 9.711,46.249C9.703,46.253 9.691,46.254 9.679,46.254L9.678,46.254C9.652,46.254 9.622,46.25 9.602,46.249L9.6,46.249C9.484,46.255 9.538,46.341 9.491,46.36C9.357,46.416 9.15,46.379 9.05,46.471C8.928,46.585 9.066,46.901 8.83,46.914C8.399,47.033 8.393,47.577 7.845,47.578L7.839,47.578C7.594,47.738 7.977,47.848 7.729,47.911C7.584,48.023 7.322,48.019 7.178,48.131C7.23,48.479 7.022,48.565 6.959,48.795L6.959,48.796C6.922,48.776 6.888,48.768 6.856,48.768L6.855,48.768C6.669,48.768 6.553,49.053 6.407,49.127C6.186,49.243 5.976,49.171 5.967,49.349C5.947,49.71 5.433,49.653 5.306,49.793C5.319,49.904 5.2,49.923 5.196,50.013C5.189,50.133 5.11,50.072 5.086,50.123C4.978,50.357 5.023,50.706 4.856,50.707L4.856,50.707C4.829,50.707 4.796,50.698 4.756,50.678L4.756,50.678C4.746,50.87 4.781,51.022 4.866,51.12C4.845,51.169 4.808,51.186 4.765,51.186L4.765,51.186C4.678,51.187 4.572,51.119 4.541,51.119L4.541,51.119C4.538,51.119 4.536,51.119 4.535,51.12C4.498,51.149 4.451,51.414 4.425,51.453C4.422,51.457 4.416,51.458 4.409,51.458L4.408,51.458C4.387,51.458 4.353,51.448 4.332,51.448L4.331,51.448C4.324,51.448 4.318,51.449 4.315,51.453C4.185,51.582 4.227,51.762 4.145,51.762L4.145,51.762C4.114,51.762 4.066,51.737 3.985,51.674C3.844,51.95 4.04,52.02 3.875,52.116C3.52,52.166 3.278,52.328 2.883,52.338C2.88,52.746 2.558,52.607 2.773,52.78C2.834,52.829 2.526,53.05 2.552,53.112C2.7,53.185 2.758,53.348 2.773,53.554L2.773,53.556C2.763,53.556 2.754,53.555 2.744,53.555L2.743,53.555C2.57,53.555 2.518,53.677 2.552,53.886L2.552,53.887L2.543,53.887C2.215,53.887 2.123,54.121 1.892,54.22C1.945,54.566 1.735,54.652 1.672,54.884C1.764,54.982 1.938,54.999 2.129,54.999L2.132,54.999C2.231,54.999 2.334,54.995 2.433,54.995L2.444,54.995C2.874,54.379 3.318,53.542 3.985,53.334C4.047,53.149 4.197,52.956 4.315,52.78C4.361,52.712 4.49,52.637 4.535,52.56C4.567,52.503 4.51,52.396 4.535,52.338C4.543,52.318 4.733,52.246 4.756,52.227C4.858,52.143 5.071,52.085 5.196,52.005C5.332,52.274 5.469,52.544 5.526,52.891C5.724,53.021 5.849,53.127 5.967,53.223C6.004,53.254 5.931,53.411 5.967,53.445C6.029,53.504 6.234,53.511 6.297,53.556C6.381,53.613 6.397,53.788 6.555,53.787L6.555,53.787C6.577,53.787 6.601,53.784 6.628,53.777C6.901,53.205 6.088,52.871 6.297,52.005C6.122,51.777 5.625,51.869 5.416,51.674C5.41,51.527 5.577,51.53 5.636,51.453C5.695,51.376 5.678,51.19 5.747,51.12C5.815,51.051 6.071,51.015 6.077,50.899C6.083,50.773 6.155,50.846 6.188,50.788C6.237,50.698 6.228,50.545 6.297,50.456C6.319,50.427 6.424,50.466 6.483,50.466L6.484,50.466C6.499,50.466 6.511,50.463 6.518,50.456C6.554,50.419 6.482,50.272 6.518,50.235C6.602,50.147 6.778,50.113 6.847,50.013C6.929,49.898 6.861,49.597 7.067,49.57C7.273,49.513 7.362,49.341 7.622,49.341L7.623,49.341C7.656,49.341 7.691,49.343 7.729,49.349L7.729,49.349C7.816,49.278 7.764,49.103 7.839,49.017C7.898,48.948 8.117,48.973 8.169,48.907C8.229,48.831 8.238,48.645 8.279,48.575C8.296,48.546 8.356,48.516 8.39,48.464C8.439,48.385 8.439,48.306 8.5,48.242C8.569,48.262 8.625,48.271 8.67,48.271L8.671,48.271C8.915,48.27 8.841,48.01 8.941,47.911C9.014,47.837 9.197,47.873 9.271,47.8C9.352,47.718 9.305,47.561 9.381,47.468C9.404,47.439 9.51,47.478 9.567,47.478L9.567,47.478C9.582,47.478 9.594,47.475 9.6,47.468C9.66,47.391 9.67,47.206 9.711,47.136C9.84,46.91 9.94,46.752 10.041,46.582C10.058,46.553 10.118,46.524 10.151,46.471C10.201,46.393 10.2,46.313 10.261,46.249C10.005,46.14 10.036,46.245 9.931,46.139C9.927,46.136 9.922,46.134 9.916,46.134ZM9.728,50.766L9.726,50.766C9.565,50.766 9.421,50.802 9.381,50.899C9.514,50.922 9.448,51.022 9.381,51.12C9.474,51.151 9.593,51.172 9.714,51.172L9.716,51.172C9.937,51.172 10.165,51.102 10.261,50.899C10.196,50.832 9.946,50.766 9.728,50.766ZM30.894,50.565L30.893,50.565C30.871,50.565 30.849,50.565 30.828,50.567C30.822,50.568 30.816,50.569 30.81,50.569C30.805,50.57 30.8,50.571 30.795,50.572C30.791,50.573 30.788,50.573 30.784,50.574C30.781,50.575 30.779,50.576 30.776,50.577C30.773,50.577 30.771,50.578 30.769,50.579L30.76,50.583L30.756,50.586C30.752,50.589 30.749,50.592 30.747,50.596C30.747,50.597 30.747,50.598 30.747,50.598C30.747,50.599 30.747,50.6 30.747,50.601C30.747,50.603 30.747,50.604 30.747,50.606C30.748,50.608 30.749,50.611 30.75,50.613C30.752,50.616 30.755,50.619 30.758,50.622C30.762,50.627 30.768,50.631 30.773,50.635C30.782,50.641 30.792,50.646 30.801,50.651C30.815,50.657 30.829,50.663 30.843,50.668C30.86,50.674 30.877,50.679 30.894,50.683C30.913,50.688 30.933,50.691 30.953,50.694C30.974,50.697 30.996,50.699 31.017,50.699L31.018,50.699C31.027,50.699 31.035,50.698 31.044,50.698C31.05,50.697 31.057,50.697 31.063,50.696C31.068,50.695 31.074,50.694 31.079,50.693C31.083,50.692 31.087,50.691 31.091,50.69C31.094,50.69 31.097,50.689 31.1,50.688C31.118,50.682 31.136,50.673 31.15,50.661C31.153,50.659 31.155,50.656 31.157,50.654C31.16,50.651 31.162,50.648 31.165,50.645C31.168,50.641 31.171,50.636 31.173,50.631C31.177,50.623 31.18,50.615 31.182,50.606C31.184,50.593 31.185,50.58 31.184,50.567L30.964,50.567L30.962,50.567C30.94,50.566 30.917,50.565 30.894,50.565ZM63.348,48.106L63.347,48.106C63.224,48.106 63.103,48.155 63.118,48.242C63.192,48.26 63.245,48.299 63.308,48.328C63.352,48.348 63.4,48.363 63.463,48.363L63.464,48.363C63.492,48.363 63.524,48.36 63.559,48.353C63.657,48.182 63.501,48.107 63.348,48.106ZM52.106,46.471L52.106,46.249L51.667,46.249L51.667,46.471L52.106,46.471ZM51.777,33.742C51.646,33.768 51.481,33.817 51.667,33.742C51.677,33.738 51.655,33.636 51.667,33.632C51.709,33.616 52.079,33.605 52.106,33.632C52.19,33.717 51.823,33.734 51.777,33.742ZM50.455,32.746L50.676,32.746C50.697,33.057 49.851,32.715 50.455,32.746ZM51.226,31.971C50.624,31.979 50.025,32.181 49.353,32.083C49.202,31.939 49.244,31.601 49.244,31.307C49.231,31.098 48.88,31.229 48.914,30.976L48.914,30.532C49.007,30.512 49.016,30.575 49.023,30.643C49.364,30.798 49.609,30.859 50.015,30.976C50.052,30.986 50.212,30.948 50.235,30.976C50.244,30.986 50.224,31.082 50.235,31.085C50.483,31.17 50.798,31.168 51.006,31.307C51.045,31.334 51.305,31.379 51.336,31.419C51.531,31.658 52.356,31.543 52.768,31.861C52.716,32.025 52.497,32.056 52.327,32.083C52.248,32.095 52.21,31.965 52.106,31.971C52.12,31.97 52.065,32.078 51.997,32.083C51.839,32.09 51.477,31.968 51.226,31.971ZM0.25,30.286L0.249,30.286C0.126,30.286 0.005,30.335 0.02,30.422C0.145,30.451 0.209,30.543 0.363,30.543L0.364,30.543C0.393,30.543 0.425,30.54 0.461,30.532C0.549,30.378 0.43,30.302 0.293,30.288C0.279,30.287 0.264,30.286 0.25,30.286ZM63.297,28.313L63.294,28.313C63.08,28.313 62.89,28.364 62.789,28.43C62.743,28.457 62.607,28.537 62.569,28.54C61.926,28.601 61.24,28.608 60.806,28.651C60.202,28.711 59.914,28.728 59.374,28.761C59.148,28.775 58.824,28.86 58.603,28.872C58.546,28.875 58.489,28.876 58.432,28.876L58.43,28.876C58.207,28.876 57.994,28.856 57.785,28.856L57.782,28.856C57.689,28.856 57.596,28.86 57.503,28.872C57.297,28.899 57.026,29.056 56.841,29.094C56.58,29.147 56.247,29.168 55.962,29.204C55.94,29.207 55.916,29.208 55.891,29.208L55.889,29.208C55.777,29.208 55.637,29.186 55.503,29.185L55.501,29.185C55.319,29.185 55.149,29.227 55.079,29.425C55.204,29.498 55.329,29.523 55.458,29.523L55.46,29.523C55.683,29.522 55.917,29.448 56.182,29.425C56.344,29.411 56.3,29.301 56.4,29.425C56.42,29.449 56.461,29.458 56.514,29.458L56.515,29.458C56.725,29.458 57.126,29.317 57.174,29.315C57.467,29.302 57.753,29.336 58.04,29.336L58.043,29.336C58.155,29.336 58.269,29.331 58.383,29.315C58.666,29.275 58.872,29.119 59.153,29.094C59.199,29.09 59.249,29.089 59.298,29.089L59.301,29.089C59.363,29.089 59.427,29.091 59.485,29.094C59.775,29.106 59.819,29.122 59.887,29.122L59.888,29.122C59.934,29.122 59.992,29.114 60.145,29.094C60.584,29.036 60.847,29.008 61.136,28.982C61.656,28.936 61.905,28.938 62.238,28.872C62.405,28.839 62.587,28.771 62.679,28.761C62.694,28.759 62.709,28.759 62.724,28.759L62.726,28.759C62.919,28.759 63.114,28.878 63.354,28.878L63.356,28.878C63.386,28.878 63.417,28.876 63.449,28.872L63.45,28.872L63.45,28.872L63.45,28.872C63.45,28.872 63.45,28.872 63.45,28.872L63.45,28.872C63.447,28.872 63.495,28.777 63.559,28.761C63.844,28.69 63.98,28.795 64,28.54C63.792,28.374 63.53,28.313 63.297,28.313ZM4.095,25.551L4.094,25.551C4.103,25.745 4.07,25.896 3.985,25.994L3.987,25.994C4.006,25.994 4.024,25.993 4.042,25.993L4.044,25.993C4.208,25.993 4.337,26.028 4.425,26.105L4.425,26.103C4.458,25.888 4.277,25.886 4.205,25.774C4.18,25.687 4.201,25.554 4.095,25.551ZM12.63,18.174L12.625,18.174C12.622,18.174 12.62,18.174 12.617,18.175C12.616,18.175 12.614,18.176 12.612,18.177C12.611,18.177 12.61,18.178 12.609,18.178C12.601,18.182 12.595,18.189 12.591,18.196L12.586,18.205C12.585,18.207 12.584,18.209 12.583,18.211C12.582,18.214 12.581,18.217 12.58,18.22C12.579,18.224 12.578,18.228 12.577,18.232C12.576,18.237 12.575,18.242 12.574,18.247L12.684,18.247L12.684,18.246C12.684,18.231 12.679,18.216 12.67,18.204C12.667,18.198 12.662,18.192 12.656,18.187C12.649,18.181 12.64,18.176 12.63,18.174ZM41.975,13.598C41.959,13.47 42.038,13.44 42.123,13.414C42.208,13.389 42.299,13.37 42.306,13.265C42.603,13.364 42.256,13.715 41.975,13.598ZM44.068,3.748L44.068,3.747L43.627,3.747C43.636,3.947 43.725,4.048 43.693,4.048L43.693,4.048C43.676,4.048 43.627,4.021 43.518,3.967C43.437,4.306 43.707,4.293 43.627,4.632L43.627,4.633C43.603,4.629 43.581,4.627 43.561,4.627L43.561,4.627C43.289,4.627 43.318,4.932 43.076,4.964L43.076,5.518L43.061,5.517C42.87,5.517 42.944,5.738 42.856,5.85C42.631,6.139 42.14,6.3 42.197,6.733L42.197,6.734C42.186,6.734 42.176,6.733 42.166,6.733L42.165,6.733C41.844,6.733 41.952,7.165 41.644,7.178C41.609,7.436 41.533,7.654 41.316,7.73L41.315,7.731C40.737,7.654 40.901,7.654 40.323,7.731C40.388,8.099 40.098,8.31 39.994,8.396C39.958,8.425 40.023,8.577 39.994,8.616C39.799,8.889 39.236,9.148 39.223,9.391C39.216,9.518 39.144,9.444 39.112,9.502C39.062,9.594 39.071,9.742 39.003,9.834C38.984,9.86 38.955,9.865 38.925,9.865L38.924,9.865C38.904,9.865 38.884,9.863 38.864,9.863L38.864,9.863C38.821,9.863 38.785,9.874 38.782,9.945C38.776,10.074 38.721,9.993 38.673,10.056C38.579,10.175 38.553,10.355 38.453,10.497C38.395,10.58 38.239,10.577 38.232,10.72C38.225,10.846 38.156,10.77 38.121,10.831C38.028,10.988 38.068,11.141 37.903,11.272L37.902,11.272L37.57,11.272C37.508,11.504 37.299,11.589 37.35,11.937L37.35,11.938C37.047,11.883 37.23,12.286 37.129,12.38C37.11,12.399 37.077,12.404 37.04,12.404L37.039,12.404C36.997,12.404 36.949,12.398 36.907,12.398L36.906,12.398C36.841,12.398 36.79,12.413 36.8,12.49C36.943,12.531 36.914,12.743 37.096,12.743L37.097,12.743C37.135,12.743 37.181,12.734 37.241,12.712L37.461,12.712L37.461,12.711C37.366,12.445 37.519,12.362 37.703,12.362L37.704,12.362C37.87,12.363 38.061,12.43 38.121,12.49L38.121,12.49C38.134,12.282 38.487,12.414 38.453,12.158L38.453,12.158C38.465,12.16 38.476,12.16 38.486,12.16L38.486,12.16C38.693,12.16 38.584,11.838 38.782,11.827C38.897,11.759 39.024,11.698 39.112,11.605C39.184,11.53 39.15,11.346 39.223,11.272C39.302,11.195 39.48,11.248 39.553,11.163C39.588,11.122 39.531,10.991 39.553,10.942C39.567,10.911 39.747,10.862 39.773,10.831C39.881,10.703 40.064,10.557 40.103,10.497C40.207,10.346 40.184,10.091 40.323,9.945C40.409,9.857 40.563,9.834 40.736,9.834L40.764,9.834L40.764,9.832C40.72,9.532 40.825,9.381 41.08,9.381L41.081,9.381C41.119,9.381 41.161,9.384 41.205,9.391C41.078,9.557 40.818,9.857 41.205,9.945L41.205,9.945C41.182,9.784 41.322,9.943 41.315,9.945L41.316,9.945C41.652,9.868 41.681,9.446 41.975,9.391L41.975,8.948C42.139,8.818 42.467,8.853 42.416,8.506C42.471,8.156 41.871,8.465 41.975,8.064C41.987,8.063 41.999,8.063 42.01,8.063L42.01,8.063C42.257,8.063 42.326,8.24 42.526,8.285L42.527,8.284C42.624,8.001 42.975,7.87 43.076,7.731C43.152,7.631 43.115,7.487 43.187,7.399C43.311,7.25 43.62,7.111 43.627,6.957C43.645,6.629 44.306,6.449 44.068,5.96C44.276,5.799 44.557,5.713 44.509,5.296L44.51,5.296C44.528,5.298 44.545,5.298 44.561,5.298L44.563,5.298C44.765,5.298 44.856,5.187 44.838,4.964C44.864,4.751 44.605,4.835 44.509,4.742C44.394,4.633 44.395,4.386 44.288,4.3C44.137,4.179 43.974,4.27 43.848,4.078L43.849,4.078C43.859,4.079 43.869,4.08 43.878,4.08L43.879,4.08C44.052,4.079 44.104,3.957 44.068,3.748ZM43.958,11.272C44.263,10.944 43.766,11.635 44.068,11.605C44.04,11.725 43.849,11.68 43.848,11.827C43.514,11.692 43.926,11.404 43.958,11.272ZM8.328,9.894L8.326,9.894C8.168,9.894 8.057,9.954 7.949,10.167C8.084,10.179 8.209,10.199 8.169,10.387C8.446,10.516 8.538,10.829 8.941,10.831C8.846,11.183 9.114,11.173 9.16,11.384L9.161,11.383C9.193,11.375 9.225,11.372 9.256,11.372L9.257,11.372C9.515,11.372 9.724,11.619 9.928,11.619L9.929,11.619C10.003,11.619 10.077,11.585 10.151,11.495C9.795,11.257 9.457,10.852 9.271,10.609C9.08,10.36 8.801,10.226 8.72,9.945C8.56,9.921 8.433,9.894 8.328,9.894ZM39.932,9.634L39.933,9.634C39.975,9.634 40.032,9.659 40.103,9.724C40.028,9.816 39.968,9.849 39.924,9.85L39.91,9.849C39.866,9.842 39.841,9.797 39.839,9.751C39.836,9.694 39.866,9.634 39.932,9.634ZM41.49,8.956L41.489,8.956C41.397,8.956 41.288,8.938 41.206,8.948L41.205,8.948C41.232,8.755 41.393,8.696 41.644,8.727C41.7,8.894 41.639,8.943 41.54,8.953C41.524,8.955 41.507,8.956 41.49,8.956ZM44.288,3.525L44.288,3.304L44.068,3.304L44.068,3.525L44.288,3.525ZM46.431,0.2L46.429,0.2C46.293,0.2 46.191,0.278 46.161,0.315C46.154,0.323 46.142,0.326 46.126,0.326L46.126,0.326C46.084,0.326 46.018,0.305 45.975,0.305L45.975,0.305C45.96,0.305 45.948,0.308 45.941,0.315C45.856,0.398 45.941,0.466 45.829,0.537C45.754,0.584 45.505,0.658 45.5,0.758C45.493,0.88 45.415,0.815 45.389,0.869C45.306,1.045 45.261,1.537 44.998,1.538L44.997,1.538C44.983,1.538 44.967,1.536 44.95,1.533L44.949,1.532C44.889,2.084 44.952,2.074 44.839,2.526L44.838,2.529L44.397,2.529C44.356,2.686 44.267,2.716 44.397,2.861C44.259,2.907 44.174,3.003 44.178,3.193C44.254,3.218 44.315,3.229 44.366,3.229L44.367,3.229C44.664,3.227 44.596,2.858 44.895,2.858L44.896,2.858C44.905,2.858 44.913,2.858 44.922,2.859C44.931,2.859 44.94,2.86 44.949,2.861L44.949,2.418L44.975,2.419C45.307,2.418 45.195,1.968 45.529,1.968L45.53,1.968C45.554,1.968 45.58,1.971 45.609,1.975L45.609,1.973C45.807,1.249 46.498,1.021 46.711,0.315C46.61,0.229 46.514,0.2 46.431,0.2ZM35.811,-1.234L35.809,-1.235L35.809,-1.234C35.778,-1.007 35.398,-1.13 35.368,-0.902C35.502,-0.879 35.436,-0.779 35.368,-0.682C35.445,-0.622 35.689,-0.57 35.699,-0.46C35.705,-0.39 35.569,-0.272 35.589,-0.238C35.65,-0.135 35.876,-0.153 35.919,-0.017C35.958,0.103 35.884,0.307 36.03,0.315C36.305,0.33 36.221,1.095 36.532,1.095L36.532,1.095C36.547,1.095 36.563,1.093 36.58,1.089C36.759,0.87 36.373,0.748 36.359,0.537C36.359,0.536 36.363,0.536 36.369,0.536L36.37,0.536C36.389,0.536 36.429,0.538 36.453,0.538L36.454,0.538C36.463,0.538 36.469,0.537 36.471,0.537C36.58,0.427 36.576,0.292 36.471,0.204C36.447,0.185 36.474,0.017 36.471,-0.017C36.423,-0.346 36.389,-0.449 36.359,-0.57C36.277,-0.902 36.168,-0.803 36.139,-1.124L36.122,-1.123C35.982,-1.123 35.895,-1.177 35.811,-1.234ZM32.507,-2.122L32.505,-2.122C32.376,-2.122 32.246,-2.084 32.175,-2.009C32.11,-1.787 32.428,-1.676 32.153,-1.675L32.152,-1.675C32.128,-1.675 32.1,-1.676 32.067,-1.678L32.065,-1.678C32.001,-1.28 32.193,-1.142 32.286,-0.902C32.154,-0.849 32.036,-0.784 31.955,-0.682L31.957,-0.682C31.974,-0.682 31.99,-0.683 32.006,-0.683L32.008,-0.683C32.03,-0.683 32.051,-0.682 32.073,-0.681C32.089,-0.68 32.105,-0.678 32.122,-0.676C32.134,-0.675 32.146,-0.673 32.159,-0.671C32.168,-0.67 32.178,-0.668 32.188,-0.666C32.195,-0.664 32.203,-0.663 32.21,-0.661C32.258,-0.649 32.305,-0.632 32.347,-0.606C32.353,-0.602 32.36,-0.597 32.367,-0.593C32.377,-0.586 32.386,-0.578 32.396,-0.57L32.396,-0.572C32.437,-0.812 32.378,-0.976 32.415,-0.976L32.415,-0.976C32.428,-0.976 32.455,-0.953 32.506,-0.902C32.518,-0.89 32.528,-0.885 32.538,-0.885L32.538,-0.885C32.618,-0.885 32.602,-1.29 32.615,-1.345C32.619,-1.363 32.706,-1.375 32.726,-1.456C32.795,-1.736 32.854,-1.721 32.835,-2.009C32.765,-2.084 32.636,-2.122 32.507,-2.122ZM7.621,-2.451L7.619,-2.452C7.608,-2.277 7.338,-2.366 7.399,-2.12C7.595,-1.838 8.029,-1.794 8.279,-1.567L8.279,-1.568C8.253,-2.056 7.98,-2.299 7.621,-2.451ZM6.745,-3.026L6.744,-3.026C6.631,-3.026 6.536,-2.992 6.518,-2.894C6.67,-2.791 6.807,-2.698 6.928,-2.698L6.929,-2.698C7.021,-2.698 7.104,-2.751 7.178,-2.894C7.14,-2.937 6.986,-2.999 6.837,-3.019C6.806,-3.023 6.775,-3.026 6.745,-3.026Z"/>
</svg>
