<?xml version="1.0" encoding="UTF-8" standalone="no"?>
<!DOCTYPE svg PUBLIC "-//W3C//DTD SVG 1.1//EN" "http://www.w3.org/Graphics/SVG/1.1/DTD/svg11.dtd">
<svg width="100%" height="100%" viewBox="0 0 72 72" version="1.1" xmlns="http://www.w3.org/2000/svg" xmlns:xlink="http://www.w3.org/1999/xlink" xml:space="preserve" xmlns:serif="http://www.serif.com/" style="fill-rule:evenodd;clip-rule:evenodd;stroke-linejoin:round;stroke-miterlimit:2;">
    <g transform="matrix(0.060137,0,0,0.060137,-26.1245,-21.902)">
        <path d="M1485.2,678.8C1498.2,677.4 1511.2,676.3 1524.1,674.5C1540.7,672.2 1557.1,672 1573.3,676.8C1576.6,677.8 1580.1,678.5 1583.2,680C1598.2,686.7 1600.1,700.5 1587.6,710.8C1580,717 1570.8,719.7 1561.5,722.2C1534.6,729.7 1506.7,732.1 1479.2,736.5C1475.8,737.1 1472.3,737.4 1468.8,737.7C1458.4,738.5 1450.1,742.7 1446.8,753.1C1443.1,764.7 1444.7,775.5 1453.8,784.5C1460.8,791.4 1469.2,795.9 1478.3,799.1C1490.6,803.4 1503.3,806.4 1516.2,808.5C1526.5,810.2 1536.8,812.4 1546.5,816.1C1573.8,826.6 1583.2,846.8 1574.3,874.6C1567.5,895.7 1554.7,913.4 1540.7,930.2C1533.5,938.9 1525.3,946.8 1517.6,955.1C1508.6,964.6 1501,975.2 1494.7,986.7C1484.3,1005.8 1482.2,1032.7 1502.1,1051.7C1505.2,1054.7 1508.2,1057.9 1510.8,1061.4C1522.5,1077.3 1525.4,1094.5 1518,1113.2C1510.1,1133.2 1497.1,1149.4 1480.3,1162.4C1465,1174.2 1452,1188.1 1440.6,1203.7C1434.9,1211.5 1430.2,1219.8 1427.1,1229C1422.4,1242.9 1425.2,1255.1 1436.8,1264.2C1444.3,1270 1452.8,1274.6 1461.1,1279.4C1470.9,1285.1 1481.1,1290.1 1488.9,1298.6C1494.5,1304.7 1495.8,1312 1492.3,1317.7C1488.3,1324.2 1482.1,1327.3 1474.6,1326.6C1463.7,1325.7 1455.1,1319.6 1446.9,1312.9C1428.9,1298.2 1407.7,1291 1385.7,1284.9C1365.7,1279.4 1349.2,1285 1336,1299.5C1321.3,1315.7 1309.6,1333.9 1303,1355.3C1299.2,1367.7 1299.6,1379.3 1305,1390.8C1308.7,1398.7 1312.5,1406.5 1316.4,1414.3C1322,1425.2 1326.2,1436.7 1328.2,1448.8C1329.2,1454.7 1329.6,1461 1328.9,1466.9C1326.8,1483.4 1314.2,1489.4 1300.8,1479.5C1282.5,1466 1267.4,1448.9 1254.7,1430C1249.8,1422.8 1245.6,1415.2 1241.1,1407.7C1237.9,1402.4 1234.3,1397.6 1229,1394.2C1213.7,1384.2 1200.2,1388.5 1193.5,1405.5C1190.3,1413.8 1189.4,1422.4 1189.1,1431.1C1188.8,1439 1187.7,1446.7 1183.6,1453.7C1177.6,1464.1 1167.1,1467.1 1156.9,1460.9C1152.5,1458.2 1148.7,1454.4 1144.3,1451.6C1138.4,1447.9 1132.5,1444 1126.1,1441.5C1101.8,1431.9 1081.2,1439.3 1068.1,1461.8C1062.3,1471.7 1058.7,1482.4 1058.2,1494C1057.8,1502.7 1057.8,1511.4 1057.1,1520.1C1056.4,1528.8 1055.3,1537.4 1053.9,1546C1052.7,1553.1 1049.7,1559.7 1041.6,1561.1C1033.6,1562.5 1028.4,1557.1 1024.6,1551.2C1020.4,1544.7 1016.7,1537.7 1013.6,1530.5C1010.8,1524.1 1009.2,1517.3 1006.8,1510.8C1005.3,1506.9 1004.7,1501.6 999.8,1500.7C994.4,1499.7 993.1,1504.9 990.9,1508.5C986.4,1515.9 982.6,1523.9 977.2,1530.6C969.6,1540.1 959.5,1544.7 947.1,1540.5C935,1536.5 928.9,1527.5 926.9,1515.5C925.6,1507.6 926.5,1499.8 928.6,1492.2C931.7,1481.3 935,1470.5 938.2,1459.6C942.8,1444 942.7,1428.6 935.2,1413.9C922.6,1389.3 895.5,1385.6 877.1,1406.1C867.5,1416.8 863,1430 860.4,1443.9C859.1,1450.8 858.3,1457.7 854.3,1463.7C851.2,1468.4 846.9,1471.1 841.2,1470.8C835.4,1470.5 831.4,1466.9 829.8,1461.6C828.1,1455.8 826.5,1449.7 826.5,1443.8C826.5,1431.6 827.4,1419.5 828.2,1407.3C828.7,1400.4 830.3,1393.4 830.1,1386.5C829.6,1360.2 818.6,1339.6 795.4,1326.1C772.8,1312.9 747.7,1308.6 722.5,1309.2C692.7,1309.9 663.9,1316.8 638.7,1334.7C623.8,1345.3 608.3,1355 591.5,1362.6C581.9,1367 572.2,1370.5 561.4,1370.5C542.2,1370.5 530.5,1356.8 534.1,1338.1C536.5,1325.4 543.7,1315.6 554.7,1309.2C561.4,1305.3 568.9,1302.6 576.2,1300.2C583.6,1297.8 591.3,1296.2 599,1294.5C627.2,1288.3 642.9,1269.4 647.2,1242.4C655,1194 642.1,1150.6 609.2,1114.2C589.1,1092 564.2,1081.9 533.8,1091.6C527.2,1093.7 520.3,1095.2 513.4,1096.2C507.4,1097.1 501.3,1097.5 495.3,1096.9C489.3,1096.3 483,1094.5 480.6,1087.9C478.1,1081.1 482,1076.1 486.6,1071.8C498.8,1060.3 512.8,1051.7 527.7,1044.2C536.3,1039.9 544.9,1035.7 552.1,1029.2C573.3,1010.3 570.8,978 547.1,962.1C539.3,956.9 530.8,956.2 522,957.3C512.5,958.5 503.2,961 493.7,962.2C486,963.1 477.3,964.4 472.3,956.5C467.1,948.3 472.9,941.5 477.5,935.3C490.5,917.7 508.1,907.8 529.6,914C548,919.2 559.8,911.6 571.6,900.6C600.4,873.6 603.8,829.6 579.8,798.5C570.5,786.5 557.4,782.4 543.2,780.9C536.3,780.2 529.3,781.5 522.4,781.4C517.2,781.4 511.9,781.2 507,780C499.4,778.2 494.2,771.8 494.3,765.3C494.4,758.6 497.8,753.9 503.3,750.4C509.5,746.6 516.3,746 523.4,745.5C540.2,744.4 556.3,748.2 572.5,751.5C579.3,752.9 586.1,755 593,755.3C608.3,756.1 619.7,746 621.5,730.8C623.2,717 618.9,705.1 610,694.6C601.9,685.1 591.4,679.1 580.5,673.5C570.4,668.4 560.2,663.3 551,656.9C540.8,649.8 533.2,640.3 530.8,627.5C529.2,618.8 535.1,611.2 543.8,612.2C557.6,613.7 571.4,615.8 585.1,618.2C595.7,620.1 605.9,619.3 615.9,615.3C630,609.7 636,600.9 635.8,585.2C635.8,581.7 634.8,578.3 634.8,574.8C634.9,563.3 640,554.8 650.7,550.1C660.6,545.8 669.7,548.2 677.5,554.7C682,558.5 685.2,564 689,568.7C691.7,572.1 694.2,575.6 697.2,578.7C698.1,579.6 700.7,579.9 701.9,579.3C703.1,578.7 704.4,576.5 704.3,575.1C703.7,567.8 695.7,560.8 702.7,553.2C707.7,547.7 715.2,547.8 722,546.3C726.2,545.4 730.4,544.1 734.4,542.5C755.6,533.9 761.8,520.7 755.1,499C754.6,497.3 754,495.7 753.1,494.2C736.9,466.2 767.3,430.5 801.5,432.4C810.7,432.9 817.8,437.6 825,442.7C833.5,448.7 842.1,454.9 851.4,459.4C867.6,467.1 876.8,462.7 883.8,445.6C884.8,443.2 885.3,440.6 886.3,438.2C897.1,413.5 915.2,406.2 938.8,418.8C950.9,425.3 962.7,428.8 976.2,427C988.9,425.2 996.7,417.5 997.5,404.6C997.9,397.7 996.3,390.7 996.4,383.8C996.8,366.8 1011.2,359.2 1025.6,368.1C1034.1,373.4 1039.1,381.4 1042.7,390.5C1046.5,400.2 1049.8,410.2 1054.5,419.5C1059.4,429.3 1066.5,430.9 1076.3,426.2C1087.1,420.9 1093.7,412.2 1098.1,401.3C1101.6,392.4 1104.3,383 1111.5,376.1C1114,373.7 1117.5,371.8 1120.8,374.4C1122.6,375.9 1124.6,378.8 1124.3,380.8C1123,391.1 1121.4,401.4 1119.3,411.7C1117.5,420.4 1116.9,428.8 1119.7,437.5C1123.8,450.2 1132.1,459 1144.7,462C1171.9,468.6 1187.5,462.3 1200.9,441C1205.5,433.7 1208.2,425.2 1211.5,417.2C1214.5,409.9 1217.8,402.8 1224,397.6C1236.8,386.8 1251.9,390.4 1257.5,406.1C1260.1,413.4 1261.6,421.3 1261.8,429C1262.6,454.4 1275.2,473.8 1292.6,490.4C1314.2,511.1 1336.7,511.2 1360.3,492.4C1364.4,489.1 1368.3,485.6 1372.5,482.5C1382.6,475.1 1394.3,471.4 1406.6,470.8C1426.1,469.8 1434.1,482.2 1425,499.2C1420.5,507.6 1415,515.6 1409.3,523.2C1380.6,561.6 1384.4,601.1 1404.9,641.2C1416.6,664.1 1436.2,675.6 1461.5,677.6C1469.3,678.2 1477.2,677.7 1485,677.7C1485.1,677.9 1485.2,678.3 1485.2,678.8Z" style="fill-rule:nonzero;"/>
    </g>
</svg>
